<svg xmlns="http://www.w3.org/2000/svg" width="200" height="100" viewBox="0 0 200 100"><rect width="100%" height="100%" fill="#1e3a8a"/><path fill="#ffffff" d="M55.68 37.815v3.09h-6.11v17.15h-3.76v-17.15H39.7v-3.09zm4.84 11.41h6.52q0-.68-.19-1.27-.18-.6-.56-1.04-.38-.45-.96-.71t-1.35-.26q-1.5 0-2.36.85-.86.86-1.1 2.43m8.82 2.08h-8.89q.08 1.11.39 1.91.31.81.81 1.33.51.53 1.2.79t1.53.26 1.45-.2 1.07-.43q.45-.24.79-.44.35-.19.67-.19.43 0 .64.32l1 1.26q-.58.67-1.29 1.12-.71.46-1.49.73-.78.28-1.58.39-.81.11-1.56.11-1.5 0-2.79-.5-1.29-.49-2.24-1.47-.95-.97-1.5-2.41-.54-1.43-.54-3.32 0-1.47.47-2.77.48-1.29 1.37-2.25t2.17-1.52 2.89-.56q1.36 0 2.5.44 1.15.43 1.98 1.26.82.84 1.29 2.05t.47 2.76q0 .79-.17 1.06-.16.27-.64.27m14.6-5.84-.91 1.26q-.15.2-.3.31t-.43.11q-.26 0-.51-.16-.26-.16-.61-.36t-.83-.36q-.48-.17-1.2-.17-.91 0-1.59.33-.69.33-1.14.95-.46.61-.68 1.49-.23.87-.23 1.98 0 1.15.25 2.04.24.9.71 1.51.46.61 1.12.92.65.32 1.48.32t1.34-.21q.51-.2.86-.44.35-.25.61-.45t.58-.2q.42 0 .63.32l.99 1.26q-.57.67-1.24 1.12-.68.46-1.4.73-.72.28-1.48.39t-1.52.11q-1.33 0-2.51-.5-1.17-.49-2.05-1.45-.89-.95-1.4-2.33t-.51-3.14q0-1.58.46-2.93.45-1.35 1.33-2.34.89-.99 2.19-1.55t2.99-.56q1.61 0 2.82.52 1.22.52 2.18 1.48m5.76-8.21v7.98q.84-.79 1.84-1.28 1.01-.49 2.37-.49 1.18 0 2.09.4t1.51 1.12q.61.72.93 1.72.31 1 .31 2.21v9.14H95.3v-9.14q0-1.32-.61-2.04-.6-.72-1.83-.72-.9 0-1.68.41-.78.4-1.48 1.1v10.39h-3.46v-20.8zm26.78 16.03q.31 0 .54.23l1.49 1.61q-1.23 1.53-3.03 2.34t-4.32.81q-2.26 0-4.06-.77-1.79-.77-3.07-2.14-1.27-1.37-1.95-3.27-.68-1.91-.68-4.16 0-2.28.73-4.18t2.05-3.27 3.16-2.14q1.83-.76 4.06-.76 2.21 0 3.92.73 1.72.73 2.92 1.9l-1.26 1.75q-.11.17-.29.3-.17.12-.48.12-.21 0-.43-.12-.23-.11-.49-.29-.27-.17-.62-.38t-.81-.39q-.46-.17-1.07-.29t-1.41-.12q-1.36 0-2.48.48-1.13.48-1.94 1.4t-1.26 2.24-.45 3.02q0 1.71.48 3.04.49 1.33 1.31 2.24.83.91 1.95 1.39t2.41.48q.77 0 1.39-.08.62-.09 1.15-.27.52-.18.99-.47.47-.28.93-.7.14-.13.3-.21.15-.07.32-.07m10.43-9.82q1.59 0 2.9.52t2.24 1.47 1.44 2.32q.5 1.38.5 3.07 0 1.71-.5 3.08-.51 1.37-1.44 2.34-.93.96-2.24 1.48t-2.9.52q-1.61 0-2.93-.52-1.31-.52-2.25-1.48-.93-.97-1.44-2.34t-.51-3.08q0-1.69.51-3.07.51-1.37 1.44-2.32.94-.95 2.25-1.47 1.32-.52 2.93-.52m0 12.14q1.79 0 2.65-1.2.86-1.21.86-3.53 0-2.33-.86-3.54-.86-1.22-2.65-1.22-1.82 0-2.7 1.22-.87 1.23-.87 3.54t.87 3.52q.88 1.21 2.7 1.21m12.78-11.05.21 1.63q.67-1.29 1.6-2.02.92-.74 2.18-.74.99 0 1.6.43l-.23 2.59q-.07.26-.2.36-.13.11-.36.11-.21 0-.62-.07t-.81-.07q-.57 0-1.02.16-.45.17-.8.49-.36.31-.63.76-.28.45-.51 1.02v8.85h-3.46v-14.36h2.03q.53 0 .74.18.21.19.28.68m10.85 3.34v6.44q.59.71 1.28 1 .69.3 1.51.3.78 0 1.41-.3.63-.29 1.07-.89t.68-1.52.24-2.16q0-1.26-.21-2.14-.2-.87-.58-1.42-.37-.55-.91-.8t-1.23-.25q-1.08 0-1.83.45-.76.46-1.43 1.29m-.46-3.57.28 1.33q.88-1 2-1.61 1.12-.62 2.63-.62 1.18 0 2.15.49t1.68 1.42 1.09 2.3q.39 1.36.39 3.13 0 1.61-.44 2.98-.43 1.37-1.24 2.38-.8 1.01-1.94 1.57-1.14.57-2.56.57-1.2 0-2.05-.37-.86-.37-1.53-1.03v5.88h-3.46v-19.05h2.12q.67 0 .88.63"/></svg>